<svg width="26" height="21" viewBox="0 0 26 21" fill="none" xmlns="http://www.w3.org/2000/svg">
<path d="M14.3032 5.30918V1.31091C14.3032 0.963235 14.4401 0.6298 14.684 0.383957C14.9278 0.138113 15.2586 0 15.6034 0C15.9445 0.00144806 16.2714 0.137981 16.5136 0.380164L25.6154 9.55653C25.7373 9.6784 25.834 9.82339 25.9 9.98313C25.966 10.1429 26 10.3142 26 10.4873C26 10.6603 25.966 10.8317 25.9 10.9914C25.834 11.1512 25.7373 11.2962 25.6154 11.418L16.5136 20.5944C16.3311 20.7748 16.0998 20.8969 15.8488 20.9456C15.5978 20.9942 15.3382 20.9672 15.1023 20.8679C14.8664 20.7686 14.6648 20.6014 14.5227 20.3872C14.3806 20.173 14.3042 19.9213 14.3032 19.6636V15.5998H13.1979C11.1436 15.5689 9.10727 15.9891 7.23019 16.8312C5.3531 17.6733 3.68027 18.9172 2.32779 20.4764C2.1648 20.6952 1.938 20.857 1.67917 20.9393C1.42035 21.0216 1.14248 21.0202 0.884504 20.9352C0.621975 20.8459 0.394609 20.6744 0.235561 20.4456C0.0765114 20.2169 -0.00590515 19.9429 0.000328064 19.6636C0.000328064 7.70815 10.5064 5.66313 14.3032 5.30918ZM13.1979 12.9518C14.0676 12.949 14.9364 13.006 15.7984 13.1222C16.1063 13.1693 16.3871 13.3262 16.5899 13.5643C16.7928 13.8025 16.9041 14.1061 16.9037 14.42V16.5044L22.8588 10.4873L16.9037 4.4702V6.55455C16.9037 6.90222 16.7667 7.23566 16.5228 7.4815C16.279 7.72734 15.9483 7.86546 15.6034 7.86546C14.4202 7.86546 5.05833 8.12764 3.02993 16.2946C5.9741 14.1061 9.54009 12.9338 13.1979 12.9518Z" fill="white"/>
</svg>
